<?xml version="1.0" encoding="utf-8"?>
<!-- Generator: Adobe Illustrator 25.3.0, SVG Export Plug-In . SVG Version: 6.00 Build 0)  -->
<svg version="1.1" id="Layer_1" xmlns="http://www.w3.org/2000/svg" xmlns:xlink="http://www.w3.org/1999/xlink" x="0px" y="0px"
	 viewBox="0 0 546.6 156.3" style="enable-background:new 0 0 546.6 156.3;" xml:space="preserve">
<style type="text/css">
	.st0{fill:#1F3C73;}
	.st1{fill:#FAA61B;}
	.st2{clip-path:url(#SVGID_2_);fill:#1F3C73;}
	.st3{fill:none;stroke:#FFFFFF;stroke-width:0.846;stroke-linecap:round;}
	.st4{fill:none;stroke:#FFFFFF;stroke-width:0.776;stroke-linecap:round;}
	.st5{fill:none;stroke:#FFFFFF;stroke-width:0.635;stroke-linecap:round;}
	.st6{fill:#FFFFFF;}
</style>
<path class="st0" d="M386.2,141.3h32.5v-4.6h-27.5v-15.6h24.3v-4.6h-24.3v-15.2h27.1v-4.6h-32.2V141.3z M359.5,142.1
	c7.5,0,13.7-3.1,17.9-6.8v-17.7H359v4.5h13.5v11.1c-3,2.5-7.8,4.5-12.8,4.5c-10.8,0-17.6-7.9-17.6-18.5v-0.1c0-9.9,7-18.2,16.9-18.2
	c6.3,0,10.1,2.1,13.5,5.1l3.2-3.8c-4.5-3.8-9.1-5.9-16.6-5.9c-13.3,0-22.3,10.8-22.3,23v0.1C336.9,131.9,345.6,142.1,359.5,142.1
	 M298.9,141.3h32.5v-4.6h-27.5v-15.6h24.3v-4.6h-24.3v-15.2H331v-4.6h-32.2V141.3z M262.1,141.3h30.1v-4.6h-25V96.8h-5V141.3z
	 M225.3,141.3h30.1v-4.6h-25V96.8h-5V141.3z M194.6,137.4c-10.2,0-17.5-8.3-17.5-18.4v-0.1c0-10.1,7.2-18.2,17.4-18.2
	S212,109,212,119.1v0.1C212,129.3,204.7,137.4,194.6,137.4 M194.4,142.1c13.5,0,22.8-10.7,22.8-23v-0.1c0-12.3-9.1-22.9-22.6-22.9
	c-13.5,0-22.8,10.7-22.8,23v0.1C171.8,131.5,180.9,142.1,194.4,142.1 M151,142.1c8.1,0,13.2-3.1,17.8-7.8l-3.3-3.2
	c-4.3,4.1-8.3,6.4-14.4,6.4c-9.8,0-17.2-8.1-17.2-18.4v-0.1c0-10.2,7.4-18.2,17.2-18.2c6,0,10.2,2.5,14,6.1l3.4-3.7
	c-4.5-4.2-9.3-7-17.4-7c-13.1,0-22.5,10.4-22.5,23v0.1C128.7,132,138.2,142.1,151,142.1"/>
<path class="st0" d="M515.6,63.1l5.2-13l5.1,13H515.6z M495.3,81.3h13.3l3.3-8.3h17.8l3.3,8.3h13.6L527,35.1h-12.3L495.3,81.3z
	 M478.4,81.3h12.7V35.4h-12.7V81.3z M446.4,46.6c7.7,0,12.7,4.3,12.7,11.7v0.1c0,7.4-5,11.6-12.7,11.6h-5.2V46.6L446.4,46.6
	L446.4,46.6z M428.5,81.3H446c16.5,0,26.1-9.8,26.1-23.1v-0.1c0-13.2-9.5-22.7-25.8-22.7h-17.8V81.3z M393.5,57.4V46.3h8.4
	c4.2,0,6.9,1.8,6.9,5.5V52c0,3.3-2.6,5.4-6.8,5.4L393.5,57.4L393.5,57.4z M380.8,81.3h12.7V67.4h5.6l9.2,13.9H423l-11-16
	c5.7-2.4,9.4-7.1,9.4-14.2V51c0-4.5-1.4-8-4.1-10.7c-3.1-3.1-7.9-4.9-15-4.9h-21.7L380.8,81.3L380.8,81.3z M350.2,70.7
	c-7,0-11.8-5.8-11.8-12.4v-0.1c0-6.6,4.6-12.2,11.7-12.2s11.7,5.7,11.7,12.4v0.1C361.8,65.1,357.2,70.7,350.2,70.7 M350.1,82.2
	c14.2,0,24.8-10.7,24.8-23.9v-0.1c0-13.2-10.5-23.7-24.7-23.7c-14.2,0-24.8,10.7-24.8,23.9v0.1C325.4,71.6,335.9,82.2,350.1,82.2
	 M303.1,82.2c10.1,0,15.9-4.4,20.3-10.4l-9.6-6.8c-2.8,3.3-5.6,5.6-10.4,5.6c-6.4,0-11-5.4-11-12.3v-0.1c0-6.7,4.5-12.2,11-12.2
	c4.4,0,7.4,2.2,10,5.4l9.6-7.4c-4.1-5.6-10.1-9.5-19.5-9.5c-13.9,0-24.1,10.5-24.1,23.9v0.1C279.5,72.2,290,82.2,303.1,82.2
	 M230.2,81.3h12.6V56.1l19.7,25.2h11.1V35.4h-12.6v24.3l-18.9-24.3h-11.9L230.2,81.3L230.2,81.3z M199.6,70.7
	c-7,0-11.8-5.8-11.8-12.4v-0.1c0-6.6,4.7-12.2,11.7-12.2s11.7,5.7,11.7,12.4v0.1C211.2,65.1,206.6,70.7,199.6,70.7 M199.5,82.2
	c14.2,0,24.8-10.7,24.8-23.9v-0.1c0-13.2-10.5-23.7-24.6-23.7s-24.8,10.7-24.8,23.9v0.1C174.8,71.6,185.3,82.2,199.5,82.2
	 M152.6,82.2c10.1,0,15.9-4.4,20.3-10.4l-9.6-6.8c-2.8,3.3-5.6,5.6-10.4,5.6c-6.4,0-11-5.4-11-12.3v-0.1c0-6.7,4.5-12.2,11-12.2
	c4.4,0,7.4,2.2,10,5.4l9.6-7.4c-4.1-5.6-10.1-9.5-19.5-9.5c-13.9,0-24.1,10.5-24.1,23.9v0.1C128.9,72.2,139.4,82.2,152.6,82.2"/>
<g>
	<path class="st1" d="M64,123.6v14.3H49.8v-14.2c0,0,3.2,1.1,3.7,1.6s3.2,2.5,3.2,2.5s2.6-1.9,3.4-2.4C60.8,124.9,64,123.6,64,123.6
		z"/>
	<path class="st1" d="M64,87.9v-6.8h25.4V66.8H64V43.4H49.8v23.4H24.2v14.4h25.5v6.8c0,0,3.1,0.3,3.8,0.8s3,1.8,3,1.8s2-1.5,2.8-1.8
		s4.3-0.7,4.3-0.7"/>
	<g>
		<g>
			<defs>
				<rect id="SVGID_1_" y="24.4" width="113.6" height="131.9"/>
			</defs>
			<clipPath id="SVGID_2_">
				<use xlink:href="#SVGID_1_"  style="overflow:visible;"/>
			</clipPath>
			<path class="st2" d="M40.8,142.5c6.3,0,11.6,1.6,16.1,4.8c4.5-3.2,9.8-4.8,16.1-4.8c2,0,3.9,0.1,5.5,0.3c1.5,0.1,2.8,0.2,3.8,0.2
				c7.1-0.6,15.8-2.6,18.4-6c4.5-5.9,2.7-16.2,0.6-28.1c-2.8-16-9.3-33.8,2.5-50.1c-5.5-6.2-9.2-13.1-11.4-20.7
				c-3.3,0.9-6.8,1.6-10.9,1.6c-7.5,0-15.5-2.5-24.5-7.6c-9,5.1-17,7.6-24.5,7.6c-4.1,0-7.7-0.7-10.9-1.6C19,46.5,15.1,53,10,58.8
				c11.5,16.5,5.1,34.1,2.3,50c-2.1,11.9-3.9,22.2,0.7,28.1c2.6,3.4,11.4,5.4,18.6,6c0.1,0,0.3,0,0.6,0c0.9,0,1.9-0.1,3.2-0.2
				C36.9,142.6,38.8,142.5,40.8,142.5 M56.9,153.1l-2.3-1.7c-5-3.8-10.3-4.3-13.9-4.3c-1.8,0-3.6,0.1-5.1,0.2
				c-1.7,0.1-3.2,0.2-4.4,0.2c-8.6-0.8-18.4-3.3-21.9-7.8C3.5,132.2,5.5,121,7.7,108c2.8-16.3,9-32.8-2.6-48L4,58.5l1.3-1.4
				c6.2-6.8,9.8-12.8,12.2-22.4l0.6-2.3l2.3,0.7c3.7,1.1,7.4,2.1,11.9,2.1c7,0,14.6-2.5,23.4-7.7l1.2-0.7l1.2,0.7
				c8.7,5.2,16.4,7.7,23.4,7.7c4.5,0,8.3-1,11.9-2.1l2.3-0.7l0.6,2.3c2.3,8.9,5.8,15.3,12.2,22.4l1.3,1.4l-1.2,1.6
				c-11.9,15-5.6,31.6-2.7,48c2.3,13,4.3,24.2-1.5,31.7c-3.4,4.5-13.2,7-21.7,7.8c-0.3,0-0.6,0-1,0c-1.1,0-2.3-0.1-3.5-0.2
				c-1.5-0.1-3.3-0.2-5.1-0.2c-3.8,0-9.4,0.5-14.6,4.8L56.9,153.1z"/>
		</g>
	</g>
	<path class="st0" d="M100,23.8c-0.1-0.2-0.3-0.3-0.5-0.3c0,0-0.1,0-0.1,0l-14.5,3.8l4.4-6.1c0.1-0.2,0.1-0.4,0-0.6
		c-0.1-0.1-0.3-0.2-0.4-0.2c-0.1,0-0.1,0-0.2,0l-8,2.6l6.1-11.5c0.1-0.2,0.1-0.5-0.1-0.6c-0.1-0.1-0.2-0.1-0.3-0.1
		c-0.1,0-0.2,0.1-0.4,0.1l-10.2,9.5l1.1-7c0-0.2-0.1-0.4-0.3-0.6c-0.1,0-0.1,0-0.2,0c-0.1,0-0.3,0.1-0.4,0.2l-4.6,5.6l1.4-12.9
		c0-0.2-0.1-0.5-0.4-0.6c-0.1,0-0.1,0-0.1,0c-0.2,0-0.4,0.1-0.5,0.3L65.8,17l-1.2-7c0-0.2-0.2-0.4-0.4-0.4c0,0-0.1,0-0.1,0
		c-0.2,0-0.4,0.1-0.5,0.3l-3.1,6.4L57.4,0.4C57.3,0.2,57.1,0,56.9,0h0c-0.2,0-0.4,0.2-0.5,0.4l-3.2,15.6l-3-6.2
		c-0.1-0.2-0.3-0.3-0.5-0.3c0,0,0,0-0.1,0c-0.2,0-0.4,0.2-0.4,0.4l-1.3,7L42.1,5.2C42,5,41.8,4.9,41.6,4.9c-0.1,0-0.1,0-0.1,0
		c-0.2,0.1-0.4,0.3-0.4,0.5l1.1,13L37.9,13c-0.1-0.1-0.2-0.2-0.4-0.2c-0.1,0-0.1,0-0.2,0c-0.2,0.1-0.3,0.3-0.3,0.6l1,6.9l-10.3-9.5
		c-0.1-0.1-0.2-0.1-0.4-0.1c-0.1,0-0.2,0-0.3,0.1c-0.2,0.1-0.3,0.4-0.1,0.6l5.9,11.6L25,20.4c-0.1,0-0.1,0-0.2,0
		c-0.2,0-0.3,0.1-0.4,0.2c-0.1,0.2-0.1,0.4,0,0.6l4.4,6.1l-14.6-4c0,0-0.1,0-0.1,0c-0.2,0-0.4,0.1-0.5,0.3c-0.1,0.2,0,0.5,0.2,0.6
		l9.8,7.4c10.7,2.3,19.5,0.9,33.2-8c14.6,8.9,24,10.1,32.9,8l10.1-7.2C100,24.3,100.1,24,100,23.8"/>
	<path class="st3" d="M56.5,79"/>
	<path class="st4" d="M58.1,77.9"/>
	<path class="st5" d="M57.9,79"/>
	<path class="st0" d="M38.3,63c-4.7,0-8-3.2-8-7.8c0-4.6,3.3-7.8,8-7.8c2.1,0,4,0.8,5.1,2.2l0.3,0.4l-3.1,2.5l-0.3-0.4
		c-0.5-0.6-1.3-1-2.2-1c-2,0-3.5,1.7-3.5,4c0,2.3,1.5,4,3.4,4c1,0,1.9-0.4,2.4-1.3l0.3-0.4l3.4,2.5l-0.3,0.4
		C42.5,62,40.5,63,38.3,63"/>
	<path class="st0" d="M78.3,63c-4.7,0-8-3.2-8-7.8c0-4.6,3.3-7.8,8-7.8c2.1,0,4,0.8,5.1,2.2l0.3,0.4l-3.1,2.5l-0.3-0.4
		c-0.5-0.6-1.3-1-2.2-1c-2,0-3.5,1.7-3.5,4c0,2.3,1.5,4,3.4,4c1,0,1.9-0.4,2.4-1.3l0.3-0.4L84,60l-0.3,0.4C82.6,62,80.5,63,78.3,63"
		/>
	<polygon class="st6" points="38,87 46.5,88.6 54.6,89.1 56.4,90.9 60.3,89.1 68,88.6 75.4,87 75.4,120.2 64.5,119.4 59.2,120.1 
		56.4,121.4 51.3,118.9 44.8,119.4 38,119.9 	"/>
	<rect x="59.6" y="102.8" class="st0" width="12.9" height="1.7"/>
	<rect x="40.6" y="102.8" class="st0" width="12.9" height="1.7"/>
	<path class="st0" d="M68.4,123c-0.4,0-0.8-0.1-1.1-0.1l-2.4-0.2c0,0,0,0-0.1,0c-1.6,0-3.8,0-8.3,3.5c-3.9-3.3-6.1-3.6-7.6-3.5
		c0,0-0.1,0-0.1,0l-2.4,0.2c-0.5,0.1-1.1,0.1-1.6,0.2v-2c0.7-0.1,1.5-0.1,2.1-0.2l2.5-0.2c1.7,0,3.9,0.2,6.2,1.9l1,0.8h0l0,0l1-0.8
		v0c2.2-1.6,4.5-1.9,6.1-1.9l2.8,0.3c0.6,0.1,1.3,0.1,2,0.2L68.4,123L68.4,123z M66.5,119l-2.7-0.2c-1.6,0-3.8,0.2-6.1,1.5V90.9l0,0
		c0,0,1.4-2,8.3-2c4.1,0,6.7-0.5,8.7-1.2v31.9h-0.5C72.6,119.6,69,119.2,66.5,119 M55.6,120.2c-2.3-1.3-4.5-1.4-6.2-1.4h-0.1
		l-2.8,0.3c-2.4,0.2-6,0.6-7.5,0.6h-0.5V87.8c2,0.6,4.5,1.2,8.7,1.2c6.9,0,8.3,2,8.3,2L55.6,120.2z M80.8,125.8V90.1h-2v33.4h-3.6
		c-0.5,0-1.1,0-1.8-0.1v-2c0.2,0,0.5,0,0.6,0h2.5V85l-1.4,0.5c-2.1,0.8-4.5,1.5-9.3,1.5c-5.8,0-8.3,1.3-9.4,2.2
		c-1.1-0.9-3.7-2.2-9.3-2.2c-4.8,0-7.1-0.7-9.3-1.5L36.6,85v36.4h2.5c0.2,0,0.4,0,0.6,0v2c-0.5,0-0.9,0-1.2,0h-3.6V90.1h-2v35.7h5.6
		c0.3,0,0.8,0,1.2,0v7.2l2.4-2.1l2.6,2.1v-7.6c0.5,0,1-0.1,1.4-0.1l1.9-0.2h0c1.5-0.1,2.9,0,4.8,1.3s2.7,2.2,2.9,2.4
		c0.3,0.2,1.1,0.3,1.5,0s2.3-2,3.4-2.5c1.1-0.6,2.5-1.3,4.3-1.2h0l2.6,0.2c0.3,0,0.6,0.1,0.9,0.1v7.7l2.4-2.1l2.6,2.1v-7.2
		c0.7,0,1.3,0.1,1.8,0.1L80.8,125.8L80.8,125.8z"/>
	<path class="st0" d="M53.4,94.9V93c-1.4-0.3-3.3-0.6-5.7-0.6c-3.3,0-5.4-0.4-7.1-0.8v1.9c1.8,0.4,3.9,0.8,7.1,0.8
		C50.4,94.2,52.2,94.5,53.4,94.9"/>
	<path class="st0" d="M53.4,100.1v-1.9c-1.4-0.3-3.3-0.6-5.7-0.6c-3.3,0-5.4-0.4-7.1-0.8v1.9c1.8,0.4,3.9,0.8,7.1,0.8
		C50.4,99.5,52.2,99.8,53.4,100.1"/>
	<path class="st0" d="M47.1,113.1c-1.9,0.2-4.7,0.5-6.5,0.6v1.9c1.8-0.1,4.6-0.4,6.8-0.6l2.5-0.2c1,0,2.2,0.1,3.5,0.5v-2
		c-1.3-0.3-2.6-0.4-3.6-0.4h-0.1L47.1,113.1z"/>
	<path class="st0" d="M47.1,107.8c-1.9,0.2-4.7,0.5-6.5,0.6v1.9c1.8-0.1,4.6-0.4,6.8-0.6l2.5-0.2c1,0,2.2,0.1,3.5,0.5v-2
		c-1.3-0.3-2.6-0.4-3.6-0.4h-0.1L47.1,107.8z"/>
	<path class="st0" d="M59.7,94.9V93c1.4-0.3,3.3-0.6,5.7-0.6c3.3,0,5.4-0.4,7.1-0.8v1.9c-1.8,0.4-3.9,0.8-7.1,0.8
		C62.8,94.2,60.9,94.5,59.7,94.9"/>
	<path class="st0" d="M59.7,100.1v-1.9c1.4-0.3,3.3-0.6,5.7-0.6c3.3,0,5.4-0.4,7.1-0.8v1.9c-1.8,0.4-3.9,0.8-7.1,0.8
		C62.8,99.5,60.9,99.8,59.7,100.1"/>
	<path class="st0" d="M66.1,113.1c1.9,0.2,4.7,0.5,6.5,0.6v1.9c-1.8-0.1-4.6-0.4-6.8-0.6l-2.5-0.2c-1,0-2.2,0.1-3.5,0.5v-2
		c1.3-0.3,2.6-0.4,3.6-0.4h0.1L66.1,113.1z"/>
	<path class="st0" d="M66.1,107.8c1.9,0.2,4.7,0.5,6.5,0.6v1.9c-1.8-0.1-4.6-0.4-6.8-0.6l-2.5-0.2c-1,0-2.2,0.1-3.5,0.5v-2
		c1.3-0.3,2.6-0.4,3.6-0.4h0.1L66.1,107.8z"/>
</g>
</svg>
